# xmcd CD database file
#
# Track frame offsets:
#	150
#	45461
#	78616
#	124255
#	169178
#	206149
#	238957
#	264375
#
# Disc length: 4121 seconds
#
# Revision: 0
# Processed by: cddbd v1.5.2PL0 Copyright (c) Steve Scherf et al.
# Submitted via: CDex 1.70beta2
#
DISCID=71101708
DTITLE=Jaume Gispert - Easy Times
DYEAR=2010
DGENRE=Jazz
TTITLE0=Looking for a Better Life
TTITLE1=Freak
TTITLE2=L'Endemà
TTITLE3=Smell Like Teen Spirit
TTITLE4=25 Segons
TTITLE5=Moviments Estranys
TTITLE6=Camins
TTITLE7=I've Got You
EXTD=YEAR: 2010
EXTT0=
EXTT1=
EXTT2=
EXTT3=
EXTT4=
EXTT5=
EXTT6=
EXTT7=
PLAYORDER=
